<svg xmlns="http://www.w3.org/2000/svg" enable-background="new 0 0 512 512" viewBox="0 0 512 512"><polygon fill="#5AC8AE" points="167.1 333 224.8 393.3 196 443.1"/><path fill="#DBDFE0" d="M204.1,478.1l-40.8-209.5h-94l42.8,219.8c2.5,12.6,13.5,21.7,26.3,21.7h39.4   C194.7,510,207.3,494.6,204.1,478.1z"/><path fill="#F1786B" d="M30.3,139.8C14.7,139.8,2,152.5,2,168.2v100.5C2,284.3,14.7,297,30.3,297h106.3V139.8H30.3z"/><rect width="31" height="157.1" x="105.6" y="139.8" fill="#E26A61"/><polygon fill="#EFF3F5" points="465.8 412.7 136.6 297 136.6 139.8 465.8 24.1"/><polygon fill="#E1E4E5" points="434.1 35.3 434.1 401.6 465.8 412.7 465.8 24.1"/><path fill="#F1786B" d="M487.9,2c-12.2,0-22.1,9.9-22.1,22.1v388.6c0,12.2,9.9,22.1,22.1,22.1c12.2,0,22.1-9.9,22.1-22.1V24.1   C510,11.9,500.1,2,487.9,2z"/></svg>