<svg xmlns="http://www.w3.org/2000/svg" data-name="Layer 1" viewBox="0 0 128 128"><path fill="#2d4356" d="M100,14H86V11a3.99887,3.99887,0,0,0-4-4H72.78A9.00635,9.00635,0,0,0,55.22,7H46a3.99887,3.99887,0,0,0-4,4v3H28a6.00476,6.00476,0,0,0-6,6V122a6.00476,6.00476,0,0,0,6,6h72a6.00476,6.00476,0,0,0,6-6V20A6.00476,6.00476,0,0,0,100,14ZM46,11H57a2.00591,2.00591,0,0,0,2-2A5,5,0,0,1,69,9a2.00591,2.00591,0,0,0,2,2H82V22H46ZM94,26v90H34V26Zm8,96a2.00591,2.00591,0,0,1-2,2H28a2.00591,2.00591,0,0,1-2-2V20a2.00587,2.00587,0,0,1,2-2H42v4H32a2.00587,2.00587,0,0,0-2,2v94a2.00591,2.00591,0,0,0,2,2H96a2.00591,2.00591,0,0,0,2-2V24a2.00587,2.00587,0,0,0-2-2H86V18h14a2.00587,2.00587,0,0,1,2,2Z"/><path fill="#d68751" d="M102,20V122a2.00591,2.00591,0,0,1-2,2H28a2.00591,2.00591,0,0,1-2-2V20a2.00587,2.00587,0,0,1,2-2H42v4H32a2.00587,2.00587,0,0,0-2,2v94a2.00591,2.00591,0,0,0,2,2H96a2.00591,2.00591,0,0,0,2-2V24a2.00587,2.00587,0,0,0-2-2H86V18h14A2.00587,2.00587,0,0,1,102,20Z"/><path fill="#81d9e3" d="M82,11V22H46V11H57a2.00591,2.00591,0,0,0,2-2A5,5,0,0,1,69,9a2.00591,2.00591,0,0,0,2,2Z"/><path fill="#e1ebf4" d="M34,26v90H94V26Zm18,76a6.00476,6.00476,0,0,1-6,6H44a6.00476,6.00476,0,0,1-6-6v-2a6.00476,6.00476,0,0,1,6-6h2a6.00476,6.00476,0,0,1,6,6Zm0-20a6.00476,6.00476,0,0,1-6,6H44a6.00476,6.00476,0,0,1-6-6V80a6.00476,6.00476,0,0,1,6-6h2a6.00476,6.00476,0,0,1,6,6ZM90,40a6.00476,6.00476,0,0,1-6,6H44a6.00476,6.00476,0,0,1-6-6V36a6.00476,6.00476,0,0,1,6-6H84a6.00476,6.00476,0,0,1,6,6Z"/><path fill="#2d4356" d="M88 75H58a2 2 0 000 4H88a2 2 0 000-4zM58 87H72a2 2 0 000-4H58a2 2 0 000 4zM46 74H44a6.00476 6.00476 0 00-6 6v2a6.00476 6.00476 0 006 6h2a6.00476 6.00476 0 006-6V80A6.00476 6.00476 0 0046 74zm2 8a2.00591 2.00591 0 01-2 2H44a2.00591 2.00591 0 01-2-2V80a2.00587 2.00587 0 012-2h2a2.00587 2.00587 0 012 2z"/><rect width="6" height="6" x="42" y="78" fill="#81d9e3" rx="2" ry="2"/><path fill="#2d4356" d="M88 95H58a2 2 0 000 4H88a2 2 0 000-4zM72 103H58a2 2 0 000 4H72a2 2 0 000-4zM46 94H44a6.00476 6.00476 0 00-6 6v2a6.00476 6.00476 0 006 6h2a6.00476 6.00476 0 006-6v-2A6.00476 6.00476 0 0046 94zm2 8a2.00591 2.00591 0 01-2 2H44a2.00591 2.00591 0 01-2-2v-2a2.00587 2.00587 0 012-2h2a2.00587 2.00587 0 012 2z"/><rect width="6" height="6" x="42" y="98" fill="#81d9e3" rx="2" ry="2"/><path fill="#2d4356" d="M84,30H44a6.00476,6.00476,0,0,0-6,6v4a6.00476,6.00476,0,0,0,6,6H84a6.00476,6.00476,0,0,0,6-6V36A6.00476,6.00476,0,0,0,84,30Zm2,10a2.00591,2.00591,0,0,1-2,2H44a2.00591,2.00591,0,0,1-2-2V36a2.00587,2.00587,0,0,1,2-2H84a2.00587,2.00587,0,0,1,2,2Z"/><rect width="44" height="8" x="42" y="34" fill="#ffdb80" rx="2" ry="2"/><path fill="#2d4356" d="M40 54H88a2 2 0 000-4H40a2 2 0 000 4zM40 62H53a2 2 0 000-4H40a2 2 0 000 4zM88 58H61a2 2 0 000 4H88a2 2 0 000-4zM40 70H88a2 2 0 000-4H40a2 2 0 000 4z"/><path fill="#e5d0c3" d="M42 18v2H28a2.00587 2.00587 0 00-2 2V20a2.00587 2.00587 0 012-2zM102 20v2a2.00587 2.00587 0 00-2-2H86V18h14A2.00587 2.00587 0 01102 20z" opacity=".3"/><path fill="#e8fbfc" d="M82,11v2H71a2.00591,2.00591,0,0,1-2-2,5,5,0,0,0-10,0,2.00591,2.00591,0,0,1-2,2H46V11H57a2.00591,2.00591,0,0,0,2-2A5,5,0,0,1,69,9a2.00591,2.00591,0,0,0,2,2Z" opacity=".4"/><rect width="60" height="2" x="34" y="26" fill="#fff" opacity=".5"/><rect width="60" height="2" x="34" y="114" fill="#9fa5aa" opacity=".5"/><path fill="#72492d" d="M102,120v2a2.00591,2.00591,0,0,1-2,2H28a2.00591,2.00591,0,0,1-2-2v-2a2.00591,2.00591,0,0,0,2,2h72A2.00591,2.00591,0,0,0,102,120Z" opacity=".4"/><path fill="#0f423c" d="M48 80v2a2.00591 2.00591 0 01-2 2H44a2.00591 2.00591 0 01-2-2V80a2.00591 2.00591 0 002 2h2A2.00591 2.00591 0 0048 80zM48 100v2a2.00591 2.00591 0 01-2 2H44a2.00591 2.00591 0 01-2-2v-2a2.00591 2.00591 0 002 2h2A2.00591 2.00591 0 0048 100z" opacity=".3"/><path fill="#f9edd2" d="M86,36v2a2.00587,2.00587,0,0,0-2-2H44a2.00587,2.00587,0,0,0-2,2V36a2.00587,2.00587,0,0,1,2-2H84A2.00587,2.00587,0,0,1,86,36Z" opacity=".5"/><path fill="#ad9359" d="M86,38v2a2.00591,2.00591,0,0,1-2,2H44a2.00591,2.00591,0,0,1-2-2V38a2.00591,2.00591,0,0,0,2,2H84A2.00591,2.00591,0,0,0,86,38Z" opacity=".45"/></svg>