<svg xmlns="http://www.w3.org/2000/svg" data-name="Layer 1" viewBox="0 0 128 128"><path fill="#f9bf64" d="M110 4v99H92a3.999 3.999 0 0 0-4 4v17H18V4Z"/><path fill="#846134" d="M62 106H24a2 2 0 0 0 0 4h38a2 2 0 0 0 0-4zm0 8H24a2 2 0 0 0 0 4h38a2 2 0 0 0 0-4z" opacity=".3"/><path fill="#deacbd" d="M102.5 48c0 .34 0 .68-.01 1.02a38.515 38.515 0 1 1 0-2.01v.01c.01.32.01.65.01.98Z"/><path fill="#e1ebf4" d="M64 21.81c-9.71 0-17.61 7.46-17.61 16.63 0 9.06 8.06 23.5 17.61 23.5s17.61-14.44 17.61-23.5c0-9.17-7.9-16.63-17.61-16.63ZM76 46h-6a3.999 3.999 0 0 1-4-4v-3h-4v3a3.999 3.999 0 0 1-4 4h-6a3.999 3.999 0 0 1-4-4v-4a3.999 3.999 0 0 1 4-4h6a3.999 3.999 0 0 1 2.62 1h6.76A3.999 3.999 0 0 1 70 34h6a3.999 3.999 0 0 1 4 4v4a3.999 3.999 0 0 1-4 4Z"/><path fill="#fc785e" d="M88.375 72.765 56.56 85.78a38.251 38.251 0 0 1-16.03-7.26l-2.41-2.64-4-3.88a18.822 18.822 0 0 1 12.27-3.62l7.11-8.63S56.2 64.37 64 64s9.61-6.89 12-2.06c.16.33.33.68.5 1.05.21.43 3.29 3.78 3.5 4.26 2.36 5.28 8.375 5.515 8.375 5.515Z"/><path fill="#2d4356" d="M109.98 0H18.02A4.01 4.01 0 0 0 14 4v120a4.01 4.01 0 0 0 4.02 4h72.76a2.016 2.016 0 0 0 1.41-.58l21.22-21A1.989 1.989 0 0 0 114 105V4a4.01 4.01 0 0 0-4.02-4ZM92 121.17V107h14.17ZM110 103H92a3.999 3.999 0 0 0-4 4v17H18V4h92Z"/><path fill="#ffdb80" d="M106.17 107 92 121.17V107h14.17z"/><path fill="#2d4356" d="M76 34h-6a3.999 3.999 0 0 0-2.62 1h-6.76A3.999 3.999 0 0 0 58 34h-6a3.999 3.999 0 0 0-4 4v4a3.999 3.999 0 0 0 4 4h6a3.999 3.999 0 0 0 4-4v-3h4v3a3.999 3.999 0 0 0 4 4h6a3.999 3.999 0 0 0 4-4v-4a3.999 3.999 0 0 0-4-4zm-18 8h-6v-4h6zm18 0h-6v-4h6zm-9 10h-6a2 2 0 0 0 0 4h6a2 2 0 0 0 0-4z"/><path fill="#2d4356" d="M64 8a39.983 39.983 0 0 0-23 72.7 11.134 11.134 0 0 1 .9-4.31 37.692 37.692 0 0 1-4.31-3.97 32.544 32.544 0 0 1 8.28-2.79c4.83-.86 7.24-4.34 8.44-7.27A15.968 15.968 0 0 0 64 65.94a15.968 15.968 0 0 0 9.7-3.59 15.596 15.596 0 0 0 1.17 2.3l2.91-2.96a12.62 12.62 0 0 1-.88-2.29c5.36-5.84 8.71-14.46 8.71-20.96 0-11.38-9.69-20.63-21.61-20.63s-21.61 9.25-21.61 20.63c0 6.5 3.36 15.12 8.71 20.97-.59 2.16-2.11 5.6-5.9 6.28a35.823 35.823 0 0 0-10.22 3.58A35.99 35.99 0 1 1 99.95 46.2a11.216 11.216 0 0 1 4.05 1.65A40.04 40.04 0 0 0 64 8ZM46.39 38.44c0-9.17 7.9-16.63 17.61-16.63s17.61 7.46 17.61 16.63c0 9.06-8.06 23.5-17.61 23.5S46.39 47.5 46.39 38.44Z"/><path fill="#81d9e3" d="M52 38h6v4h-6zM70 38h6v4h-6z"/><path fill="#2d4356" d="M102.93 52.13a7.123 7.123 0 0 0-10.16 0L63.83 81.6l-6.25-6.37c-6.66-6.78-16.95 4.06-10.5 10.62l12.17 12.4a5.867 5.867 0 0 0 8.36 0l35.32-35.98a7.263 7.263 0 0 0 0-10.14Zm-2.85 7.34L64.75 95.44a1.84 1.84 0 0 1-1.32.56 1.88 1.88 0 0 1-1.33-.56S49.95 83.07 49.93 83.05c-2.78-2.83 1.73-8.14 4.79-5.02l7.79 7.93a1.84 1.84 0 0 0 1.32.56 1.88 1.88 0 0 0 1.33-.56s30.43-30.99 30.47-31.02a3.154 3.154 0 0 1 4.45 0 3.242 3.242 0 0 1 0 4.53Z"/><path fill="#e1ebf4" d="M100.08 59.47 64.75 95.44a1.84 1.84 0 0 1-1.32.56 1.88 1.88 0 0 1-1.33-.56S49.95 83.07 49.93 83.05c-2.78-2.83 1.73-8.14 4.79-5.02l7.79 7.93a1.84 1.84 0 0 0 1.32.56 1.88 1.88 0 0 0 1.33-.56s30.43-30.99 30.47-31.02a3.154 3.154 0 0 1 4.45 0 3.242 3.242 0 0 1 0 4.53Z"/><path fill="#2d4356" d="M62 104H24a2 2 0 0 0 0 4h38a2 2 0 0 0 0-4zm0 8H24a2 2 0 0 0 0 4h38a2 2 0 0 0 0-4z"/><path fill="#846134" d="M106.17 107 92 121.17v-2L104.17 107h2zM18 122h70v2H18z" opacity=".3"/><path fill="#f4dcbd" d="M18 4h92v2H18z" opacity=".6"/><path fill="#fff" d="M81.61 38.44c0 .33-.01.67-.03 1.01-.55-8.71-8.22-15.64-17.58-15.64s-17.03 6.93-17.58 15.64c-.02-.34-.03-.68-.03-1.01 0-9.17 7.9-16.63 17.61-16.63s17.61 7.46 17.61 16.63Z" opacity=".5"/><path fill="#9fa5aa" d="M81.61 38.44c0 9.06-8.06 23.5-17.61 23.5S46.39 47.5 46.39 38.44q0-.495.03-.99c.56 9.08 8.38 22.49 17.58 22.49s17.02-13.41 17.58-22.49q.03.495.03.99Z" opacity=".5"/><path fill="#fff" d="M100.84 58.2a3.051 3.051 0 0 0-.76-1.26 3.154 3.154 0 0 0-4.45 0c-.04.03-30.47 31.02-30.47 31.02a1.88 1.88 0 0 1-1.33.56 1.84 1.84 0 0 1-1.32-.56l-7.79-7.93c-2.08-2.12-4.82-.35-5.5 1.88-.98-2.87 2.82-6.62 5.5-3.88l7.79 7.93a1.84 1.84 0 0 0 1.32.56 1.88 1.88 0 0 0 1.33-.56s30.43-30.99 30.47-31.02a3.154 3.154 0 0 1 4.45 0 3.222 3.222 0 0 1 .76 3.26Z" opacity=".5"/><path fill="#9fa5aa" d="M100.08 59.47 64.75 95.44a1.84 1.84 0 0 1-1.32.56 1.88 1.88 0 0 1-1.33-.56S49.95 83.07 49.93 83.05a3.073 3.073 0 0 1-.71-3.14 3.02 3.02 0 0 0 .71 1.14L62.1 93.44a1.88 1.88 0 0 0 1.33.56 1.84 1.84 0 0 0 1.32-.56l35.33-35.97a3.15 3.15 0 0 0 .76-1.27 3.24 3.24 0 0 1-.76 3.27Z" opacity=".5"/><path fill="#426666" d="M52 40h6v2h-6zM70 40h6v2h-6z" opacity=".3"/><path fill="#f4eaee" d="M102.369 46.963c.04.018.08.04.121.058v-.011c-.039-.018-.082-.03-.121-.047zm-2.581-.786c.059.01.12.016.178.027l-.016-.004A35.997 35.997 0 0 0 28 48c0 .3 0 .6.02.89a35.994 35.994 0 0 1 71.768-2.713zm1.437.347c.044.014.087.033.132.047-.045-.014-.087-.033-.132-.047z" opacity=".3"/><path fill="#f9dbd7" d="M50.92 69.264a12.875 12.875 0 0 0 3.39-4.904A15.968 15.968 0 0 0 64 67.94a15.968 15.968 0 0 0 9.7-3.59c.138.334.296.675.464 1.017l.705-.718A15.588 15.588 0 0 1 73.7 62.35a15.968 15.968 0 0 1-9.7 3.59 15.968 15.968 0 0 1-9.69-3.58c-1.2 2.93-3.61 6.41-8.44 7.27a32.544 32.544 0 0 0-8.28 2.79c.44.47.89.93 1.35 1.37a32.691 32.691 0 0 1 6.851-2.146 11.885 11.885 0 0 1 5.128-2.38Z" opacity=".3"/></svg>