<svg xmlns="http://www.w3.org/2000/svg" enable-background="new 0 0 64 64" viewBox="0 0 64 64"><path fill="#f4f4f4" d="M60.814,3.605H49.1319v53.5684c0,3.2259,2.6152,5.841,5.841,5.841l0,0c3.2259,0,5.841-2.6152,5.841-5.841
		L60.814,3.605L60.814,3.605z"/><path fill="#f72121" d="M54.6329,60.4064c-1.6916-0.1731-2.9111-1.7264-2.9111-3.4268l0-33.0414c0-0.7153,0.5798-1.2951,1.2951-1.2951
		h3.9116c0.7153,0,1.2951,0.5798,1.2951,1.2951v33.2354C58.2236,59.078,56.577,60.6053,54.6329,60.4064z"/><path d="M60.8154,3.6018v53.5749c0,1.6188-0.6604,3.0692-1.7094,4.1311c-1.0619,1.062-2.5254,1.7095-4.1311,1.7095
		c-2.4346,0-4.5326-1.4893-5.4003-3.6131c0.6864,0.2849,1.4375,0.4402,2.2275,0.4402c1.6188,0,3.0692-0.6605,4.1311-1.7095
		c1.062-1.0619,1.7095-2.5253,1.7095-4.1311V3.6018H60.8154z" enable-background="new" opacity=".09"/><path fill="#e9e9e9" d="M60.4644,0.9832H49.4816c-1.539,0-2.7867,1.2476-2.7867,2.7866l0,0c0,1.539,1.2476,2.7866,2.7867,2.7866
		h10.9827c1.539,0,2.7867-1.2476,2.7867-2.7866l0,0C63.251,2.2308,62.0034,0.9832,60.4644,0.9832z"/><path d="M63.2501,3.7702c0,1.5411-1.2431,2.7843-2.7843,2.7843h-4.0534c1.5281,0,2.7843-1.2432,2.7843-2.7843
		c0-0.7641-0.3108-1.4634-0.8159-1.9685c-0.505-0.5051-1.2044-0.8159-1.9684-0.8159h4.0534c0.777,0,1.4634,0.3108,1.9684,0.8159
		C62.9393,2.3068,63.2501,3.0061,63.2501,3.7702z" enable-background="new" opacity=".09"/><path fill="#f4f4f4" d="M28.4969,20.1494V4.1652H16.7062v15.9842c-9.1973,2.5755-15.951,10.9992-15.951,21.0189
		c0,12.0655,9.781,21.8464,21.8463,21.8464s21.8463-9.781,21.8463-21.8464C44.4479,31.1485,37.6942,22.7249,28.4969,20.1494z"/><path fill="#28d1b0" d="M41.8564,41.1703c0,11.3367-9.8446,20.4151-21.4345,19.1366C13.45,59.5378,7.3195,54.9206,4.7373,48.3991
		C2.7149,43.2916,2.98,37.965,4.9621,33.4887c0.1364-0.308,0.3909-0.5536,0.7033-0.6793c2.016-0.8108,4.2072-1.2854,6.8199-1.1056
		c6.4233,0.4662,9.1298,4.0405,14.9057,5.5426c2.8894,0.7604,7.5116,0.538,11.767-2.156c0.7225-0.4574,1.6901-0.0978,1.9315,0.7225
		C41.5934,37.5256,41.8564,39.3223,41.8564,41.1703z"/><circle cx="14.103" cy="41.873" r="3.837" fill="#54eace"/><circle cx="29.971" cy="47.662" r="3.139" fill="#54eace"/><circle cx="22.827" cy="52.559" r="1.759" fill="#54eace"/><path d="M44.4464,41.1703c0,12.0696-9.7775,21.847-21.847,21.847c-7.0061,0-13.2481-3.3023-17.2368-8.4306
		c3.7038,2.9008,8.3787,4.6362,13.4423,4.6362c12.0696,0,21.8471-9.7774,21.8471-21.847c0-5.0506-1.7095-9.6868-4.5844-13.3776
		C41.17,27.9869,44.4464,34.19,44.4464,41.1703z" enable-background="new" opacity=".09"/><path fill="#e9e9e9" d="M28.0929,0.9832H17.1101c-1.539,0-2.7866,1.2476-2.7866,2.7866l0,0c0,1.539,1.2476,2.7866,2.7866,2.7866
		h10.9827c1.539,0,2.7866-1.2476,2.7866-2.7866l0,0C30.8796,2.2308,29.6319,0.9832,28.0929,0.9832z"/><path d="M30.8745,3.7702c0,1.5411-1.2431,2.7843-2.7843,2.7843h-4.0534c1.5411,0,2.7843-1.2432,2.7843-2.7843
		c0-0.7641-0.3108-1.4634-0.8159-1.9685c-0.505-0.5051-1.2044-0.8159-1.9684-0.8159h4.0534c0.777,0,1.4634,0.3108,1.9684,0.8159
		C30.5637,2.3068,30.8745,3.0061,30.8745,3.7702z" enable-background="new" opacity=".09"/><path fill="#0b0c0c" d="M54.9654,61.1728c-0.1355,0-0.2722-0.0061-0.4089-0.0208l0,0c-2.0093-0.2063-3.584-2.0386-3.584-4.1724
		V23.9384c0-1.1279,0.9168-2.0453,2.0447-2.0453h3.9112c1.1279,0,2.0447,0.9174,2.0447,2.0453v33.2354
		c0,1.1279-0.481,2.2107-1.3208,2.9688C56.9149,60.8078,55.953,61.1728,54.9654,61.1728z M54.7103,59.6603
		c0.7178,0.0684,1.405-0.1514,1.9361-0.6311c0.5261-0.4749,0.8276-1.1511,0.8276-1.8555V23.9384
		c0-0.3009-0.2454-0.5451-0.5457-0.5451h-3.9112c-0.3003,0-0.5457,0.2441-0.5457,0.5451v33.0413
		C52.4715,58.3542,53.4554,59.5309,54.7103,59.6603L54.7103,59.6603z M64,3.7696c0-1.9501-1.5857-3.5364-3.5352-3.5364H49.482
		c-1.9507,0-3.5364,1.5863-3.5364,3.5364c0,1.5647,1.0278,2.8803,2.439,3.3452v50.0529c0,3.639,2.9541,6.5992,6.587,6.5992
		c1.77,0,3.4241-0.6873,4.6546-1.9324c1.2464-1.2451,1.9312-2.9029,1.9312-4.6668V7.116C62.9701,6.6524,64,5.3359,64,3.7696z
		 M58.5629,60.7773c-0.9497,0.9607-2.2254,1.4905-3.5914,1.4905c-2.8052,0-5.088-2.2876-5.088-5.1002V7.3066h10.1747v49.861
		C60.0583,58.5312,59.5285,59.8129,58.5629,60.7773z M60.4648,5.8064H49.482c-1.1231,0-2.0374-0.9137-2.0374-2.0368
		s0.9143-2.0362,2.0374-2.0362h10.9828c1.1231,0,2.0362,0.9131,2.0362,2.0362S61.5879,5.8064,60.4648,5.8064z M22.6316,61.1801
		c-0.7587,0-1.5229-0.0427-2.2919-0.127C13.099,60.2536,6.7012,55.3951,4.04,48.6751c-2.0166-5.0929-1.9324-10.5934,0.2368-15.4897
		c0.2124-0.4822,0.6171-0.874,1.1084-1.0718c2.3914-0.9619,4.665-1.3269,7.1516-1.1585c3.8764,0.282,6.4967,1.6699,9.0309,3.0127
		c1.8012,0.9546,3.6634,1.9422,6.0121,2.5525c2.5812,0.6812,7.0552,0.5481,11.1769-2.063c0.5481-0.3467,1.2097-0.4126,1.814-0.1856
		c0.6055,0.2283,1.0559,0.7129,1.2378,1.3294c0.5298,1.7957,0.7971,3.6695,0.7971,5.5689c0,5.6739-2.4305,11.1049-6.6706,14.9026
		C32.2142,59.4064,27.5578,61.1801,22.6316,61.1801z M11.3857,32.415c-1.8549,0-3.6078,0.354-5.4408,1.0901
		c-0.1312,0.0525-0.2393,0.1575-0.2966,0.2869c-2.005,4.5264-2.0807,9.6156-0.2136,14.3313
		c2.4591,6.2098,8.3742,10.6996,15.0698,11.4382c5.3315,0.5908,10.4573-1.0474,14.4302-4.6058
		c3.9222-3.5132,6.172-8.5377,6.172-13.7856c0-1.7554-0.2478-3.4864-0.7361-5.1441c-0.0476-0.1624-0.1672-0.2893-0.3272-0.3503
		c-0.1587-0.0586-0.3381-0.0439-0.4834,0.0488c-4.5258,2.8626-9.3519,3.0384-12.3598,2.2473
		c-2.5165-0.6543-4.4581-1.6834-6.3349-2.6783c-2.5074-1.3281-4.875-2.5843-8.434-2.8418
		C12.0784,32.4273,11.7299,32.415,11.3857,32.415z M29.2485,19.5834V7.0966c1.3812-0.4817,2.381-1.7836,2.381-3.327
		c0-1.9501-1.5863-3.5364-3.5364-3.5364H17.1102c-1.9501,0-3.537,1.5863-3.537,3.5364c0,1.5457,1.0033,2.8489,2.3877,3.329v12.4849
		C6.5351,22.482,0,31.2761,0,41.1688c0,12.4611,10.1375,22.598,22.5986,22.598c12.4605,0,22.5974-10.1369,22.5974-22.598
		C45.196,31.2749,38.6676,22.4802,29.2485,19.5834z M15.0735,3.7696c0-1.1231,0.9137-2.0362,2.0368-2.0362h10.9828
		c1.1231,0,2.0362,0.9131,2.0362,2.0362s-0.9131,2.0368-2.0362,2.0368H17.1102C15.9872,5.8064,15.0735,4.8927,15.0735,3.7696z
		 M22.5986,62.2678c-11.6335,0-21.0983-9.4655-21.0983-21.099c0-9.413,6.338-17.7615,15.4128-20.3018
		c0.3241-0.0903,0.5481-0.3857,0.5481-0.7221V7.3066h10.287V20.145c0,0.3363,0.224,0.6317,0.5481,0.7221
		c9.0675,2.5385,15.4006,10.8864,15.4006,20.3018C43.697,52.8023,34.2321,62.2678,22.5986,62.2678z"/></svg>