<svg xmlns="http://www.w3.org/2000/svg" id="Layer_1" x="0" y="0" version="1.1" viewBox="0 0 52 52" xml:space="preserve"><path fill="#00a388" d="M3 6h12v40H3z"/><path fill="#2a3d4f" d="M15 47H3a1 1 0 0 1-1-1V6a1 1 0 0 1 1-1h12a1 1 0 0 1 1 1v40a1 1 0 0 1-1 1zM4 45h10V7H4v38z"/><path fill="#3c96d1" d="M20 6h12v40H20z"/><path fill="#2a3d4f" d="M32 47H20a1 1 0 0 1-1-1V6a1 1 0 0 1 1-1h12a1 1 0 0 1 1 1v40a1 1 0 0 1-1 1zm-11-2h10V7H21v38z"/><path fill="#eb675e" d="M37 6h12v40H37z"/><path fill="#2a3d4f" d="M49 47H37a1 1 0 0 1-1-1V6a1 1 0 0 1 1-1h12a1 1 0 0 1 1 1v40a1 1 0 0 1-1 1zm-11-2h10V7H38v38z"/><path fill="#d4c8bc" d="M7 11h4v11H7z"/><path fill="#2a3d4f" d="M11 23H7a1 1 0 0 1-1-1V11a1 1 0 0 1 1-1h4a1 1 0 0 1 1 1v11a1 1 0 0 1-1 1zm-3-2h2v-9H8v9z"/><circle cx="9" cy="39" r="2" fill="#ffd766"/><path fill="#2a3d4f" d="M9 42c-1.654 0-3-1.346-3-3s1.346-3 3-3 3 1.346 3 3-1.346 3-3 3zm0-4a1.001 1.001 0 0 0 0 2 1.001 1.001 0 0 0 0-2z"/><path fill="#d4c8bc" d="M24 11h4v11h-4z"/><path fill="#2a3d4f" d="M28 23h-4a1 1 0 0 1-1-1V11a1 1 0 0 1 1-1h4a1 1 0 0 1 1 1v11a1 1 0 0 1-1 1zm-3-2h2v-9h-2v9z"/><circle cx="26" cy="39" r="2" fill="#ffd766"/><path fill="#2a3d4f" d="M26 42c-1.654 0-3-1.346-3-3s1.346-3 3-3 3 1.346 3 3-1.346 3-3 3zm0-4a1.001 1.001 0 0 0 0 2 1.001 1.001 0 0 0 0-2z"/><g><path fill="#d4c8bc" d="M41 11h4v11h-4z"/><path fill="#2a3d4f" d="M45 23h-4a1 1 0 0 1-1-1V11a1 1 0 0 1 1-1h4a1 1 0 0 1 1 1v11a1 1 0 0 1-1 1zm-3-2h2v-9h-2v9z"/></g><g><circle cx="43" cy="39" r="2" fill="#ffd766"/><path fill="#2a3d4f" d="M43 42c-1.654 0-3-1.346-3-3s1.346-3 3-3 3 1.346 3 3-1.346 3-3 3zm0-4a1.001 1.001 0 0 0 0 2 1.001 1.001 0 0 0 0-2z"/></g></svg>