<svg xmlns="http://www.w3.org/2000/svg" viewBox="0 0 64 64"><path fill="#5a6d80" d="M51 18h-.687c-.456 0-.843-.312-.963-.753a17.877 17.877 0 0 0-1.724-4.152 1.003 1.003 0 0 1 .149-1.214l.488-.488a.999.999 0 0 0 0-1.414L44.02 5.736a.999.999 0 0 0-1.414 0l-.488.488a1.003 1.003 0 0 1-1.214.149 17.834 17.834 0 0 0-4.152-1.724A1.002 1.002 0 0 1 36 3.688v-.599C36 2.447 35.552 2 35 2h-6a1 1 0 0 0-1 1v.687c0 .456-.313.843-.753.963a17.877 17.877 0 0 0-4.152 1.724 1.003 1.003 0 0 1-1.214-.149l-.488-.488a.999.999 0 0 0-1.414 0L15.736 9.98a.999.999 0 0 0 0 1.414l.488.488c.323.323.376.818.149 1.214a17.834 17.834 0 0 0-1.724 4.152c-.12.439-.506.752-.962.752H13a1 1 0 0 0-1 1v6a1 1 0 0 0 1 1h.687c.456 0 .843.313.963.753a17.877 17.877 0 0 0 1.724 4.152c.227.396.174.891-.149 1.214l-.488.488a.999.999 0 0 0 0 1.414l4.243 4.243a.999.999 0 0 0 1.414 0l.488-.488a1.003 1.003 0 0 1 1.214-.149 17.834 17.834 0 0 0 4.152 1.724c.44.12.753.507.753.963V41a1 1 0 0 0 1 1h6a1 1 0 0 0 1-1v-.687c0-.456.313-.843.753-.963a17.877 17.877 0 0 0 4.152-1.724 1.003 1.003 0 0 1 1.214.149l.488.488a.999.999 0 0 0 1.414 0l4.243-4.243a.999.999 0 0 0 0-1.414l-.488-.488a1.003 1.003 0 0 1-.149-1.214 17.834 17.834 0 0 0 1.724-4.152c.12-.44.507-.753.963-.753H51a1 1 0 0 0 1-1v-6A1 1 0 0 0 51 18zM32 35c-7.18 0-13-5.82-13-13S24.82 9 32 9s13 5.82 13 13-5.82 13-13 13z"/><path fill="#ff8088" d="m33.772 17.157-1.796 1.675-1.62-1.511c-1.751-1.633-4.511-1.706-6.164-.164-1.654 1.542-1.575 4.116.176 5.748L31.975 30l7.785-7.259c1.654-1.542 1.654-4.042 0-5.584-1.654-1.543-4.335-1.543-5.988 0z"/><path fill="#f2d0a3" d="m10.745 42-.71-2.841a1.53 1.53 0 0 0-1.825-1.121c-.806.178-1.288 1.02-1.152 1.835L7.745 44l1.462 2.448a3.383 3.383 0 0 0 3.118 1.642l1.42-.09-3-6z"/><path fill="#ffdbac" d="m23.162 49.3-3.624-5.12a1.873 1.873 0 0 0-3.204 1.92l1.208 2.714-7.082-2.244a1.992 1.992 0 0 1-.816-.571L5.068 40.66a1.89 1.89 0 0 0-2.982 2.312l5.753 8.219c.092.132.2.252.321.358l3.961 3.466c1.416 1.239 3.985 2.703 3.833 4.817-.052.724-.132 1.446-.21 2.168h9c-.215-4.233 1.076-8.959-1.582-12.7z"/><path fill="#f2d0a3" d="m53 42 .71-2.841a1.53 1.53 0 0 1 1.825-1.121c.806.178 1.288 1.02 1.152 1.835L56 44l-.732 1.226A5.715 5.715 0 0 1 50 48l3-6z"/><path fill="#ffdbac" d="m40.583 49.3 3.624-5.12a1.873 1.873 0 0 1 3.204 1.92l-1.208 2.714 7.082-2.245c.316-.118.597-.315.816-.571l4.576-5.339a1.89 1.89 0 0 1 2.982 2.312l-5.753 8.219c-.092.132-.2.252-.321.358l-3.961 3.466c-1.416 1.239-3.985 2.703-3.833 4.817.051.725.131 1.447.209 2.169h-9c.216-4.233-1.075-8.959 1.583-12.7z"/></svg>